<?xml version="1.0" encoding="iso-8859-1"?>
<!-- Generator: Adobe Illustrator 19.0.0, SVG Export Plug-In . SVG Version: 6.00 Build 0)  -->
<svg version="1.1" id="Capa_1" xmlns="http://www.w3.org/2000/svg" xmlns:xlink="http://www.w3.org/1999/xlink" x="0px" y="0px"
	 viewBox="0 0 511.991 511.991" style="enable-background:new 0 0 511.991 511.991;" xml:space="preserve">
<path style="fill:#4C8056;" d="M256.235,0L256.235,0c9.751,0,17.655,7.904,17.655,17.655V183.33h-35.31V17.655
	C238.58,7.904,246.485,0,256.235,0z"/>
<path style="fill:#71C285;" d="M235.314,168.872c-1.2,6.538-6.099,16.799-12.918,18.347c-4.723,1.071-18.192-7.447-21.952-11.108
	l-49.08-134.798c-3.311-9.164,1.432-19.278,10.596-22.592c9.163-3.314,19.278,1.425,22.596,10.586L235.314,168.872z"/>
<path style="fill:#4C8056;" d="M197.356,177.081c1.421,7.85-2.869,15.618-10.27,18.597c-5.384,2.473-19.126,3.126-24.159-3.06
	l-95.69-95.691c-6.876-6.878-6.885-18.024-0.021-24.913s18.011-6.92,24.913-0.069L197.356,177.081z"/>
<path style="fill:#71C285;" d="M276.628,169.423c1.2,6.538,6.099,16.799,12.918,18.347c4.723,1.072,18.192-7.447,21.952-11.108
	l49.081-134.797c3.311-9.164-1.432-19.278-10.595-22.592s-19.278,1.425-22.596,10.586L276.628,169.423z"/>
<path style="fill:#4C8056;" d="M314.586,177.633c-1.421,7.85,2.869,15.618,10.27,18.597c5.384,2.473,19.126,3.126,24.159-3.06
	l95.69-95.691c4.477-4.444,6.239-10.94,4.622-17.037c-1.618-6.097-6.369-10.865-12.46-12.505s-12.594,0.099-17.054,4.56
	L314.586,177.633z"/>
<path style="fill:#B49ACA;" d="M423.959,315.233c0.004,6.232-0.438,12.457-1.324,18.626c-7.062,49.258-41.754,91.012-89.954,112.728
	c-4.414,2.03-8.915,3.796-13.594,5.473c-19.696,6.202-35.327,21.31-42.195,40.783c-0.441,1.324-0.795,2.56-1.149,3.884
	c-2.21,8.87-10.12,15.138-19.261,15.262c-9.141,0.124-17.218-5.926-19.669-14.733c0-0.177-0.088-0.353-0.088-0.53
	c-6.17-21.253-22.522-38.036-43.608-44.756c-4.501-1.589-9.003-3.443-13.329-5.385c-38.133-16.341-68.098-47.323-83.157-85.981
	c-3.092-8.31-5.31-16.919-6.621-25.688c-4.529-29.666,1.268-59.988,16.42-85.892c2.96-5.339,6.324-10.445,10.062-15.272
	c12.612-16.642,28.393-30.623,46.433-41.137c10.896-6.379,22.436-11.587,34.429-15.537c1.012-0.377,2.043-0.701,3.088-0.971
	c11.366-3.52,23.042-5.944,34.87-7.239c13.906-1.53,27.937-1.53,41.843,0c11.828,1.295,23.504,3.719,34.87,7.239
	c2.03,0.617,4.061,1.236,6.002,1.942l0.088,0.088c11.831,4.047,23.172,9.407,33.81,15.978c13.483,8.193,25.679,18.337,36.192,30.102
	c4.145,4.563,7.979,9.4,11.476,14.477c15.202,21.563,23.651,47.158,24.276,73.534C423.959,313.203,423.959,314.262,423.959,315.233z
	"/>
<g>
	<path style="fill:#7D6599;" d="M176.787,256c-0.312,5.159-4.726,9.1-9.887,8.828c-21.243,0.543-42.207-4.935-60.469-15.801
		c2.96-5.339,6.324-10.445,10.062-15.272c15.073,9.435,32.638,14.111,50.406,13.418C172.061,246.9,176.476,250.841,176.787,256z"/>
	<path style="fill:#7D6599;" d="M150.304,361.931c-0.078,4.946-4.146,8.896-9.092,8.828c-15.447,0.131-30.712-3.345-44.579-10.152
		c-3.092-8.31-5.31-16.919-6.621-25.688c14.339,11.997,32.506,18.45,51.2,18.185C146.158,353.035,150.226,356.985,150.304,361.931z"
		/>
	<path style="fill:#7D6599;" d="M423.959,315.233c0.004,6.232-0.438,12.457-1.324,18.626c-15.877,7.092-33.106,10.646-50.494,10.417
		c-3.412,0.418-6.759-1.167-8.597-4.071c-1.838-2.904-1.838-6.608,0-9.512s5.185-4.49,8.597-4.071
		c18.332,0.807,36.447-4.232,51.73-14.389C423.959,313.203,423.959,314.262,423.959,315.233z"/>
	<path style="fill:#7D6599;" d="M399.595,238.698c-18.702,11.956-40.578,17.987-62.764,17.302c-3.412,0.418-6.759-1.167-8.597-4.071
		c-1.838-2.904-1.838-6.608,0-9.512c1.838-2.904,5.185-4.49,8.597-4.071c18.156,0.8,36.102-4.142,51.288-14.124
		C392.264,228.784,396.098,233.621,399.595,238.698L399.595,238.698z"/>
	<path style="fill:#7D6599;" d="M256.235,308.966c-15.978-1.062-31.752-4.182-46.931-9.28c-4.625-1.543-7.124-6.543-5.582-11.168
		c1.543-4.625,6.543-7.124,11.168-5.582c13.385,4.479,27.272,7.292,41.345,8.375c14.074-1.076,27.961-3.889,41.345-8.375
		c4.625-1.543,9.626,0.957,11.168,5.582c1.543,4.625-0.957,9.625-5.582,11.168C287.987,304.784,272.213,307.903,256.235,308.966z"/>
	<path style="fill:#7D6599;" d="M256.235,414.897c-15.581-0.743-31.056-2.969-46.215-6.647c-4.731-1.153-7.635-5.918-6.492-10.651
		c1.143-4.733,5.903-7.647,10.638-6.513c13.805,3.335,27.887,5.396,42.069,6.155c14.182-0.759,28.264-2.82,42.069-6.155
		c4.735-1.134,9.495,1.78,10.638,6.513s-1.761,9.498-6.492,10.651C287.292,411.928,271.817,414.153,256.235,414.897L256.235,414.897
		z"/>
</g>
<g>
</g>
<g>
</g>
<g>
</g>
<g>
</g>
<g>
</g>
<g>
</g>
<g>
</g>
<g>
</g>
<g>
</g>
<g>
</g>
<g>
</g>
<g>
</g>
<g>
</g>
<g>
</g>
<g>
</g>
</svg>
